<svg width="48" height="48" viewBox="0 0 48 48" fill="none" xmlns="http://www.w3.org/2000/svg">
<path d="M36 0C42.6274 0 48 5.37258 48 12V36C48 42.6274 42.6274 48 36 48H12C5.37258 48 0 42.6274 0 36V12C0 5.37258 5.37258 0 12 0H36Z" fill="#6A5CFF"/>
<path d="M15.875 16C14.8398 16 14 16.8398 14 17.875C14 18.4648 14.2773 19.0195 14.75 19.375L23.25 25.75C23.6953 26.082 24.3047 26.082 24.75 25.75L33.25 19.375C33.7227 19.0195 34 18.4648 34 17.875C34 16.8398 33.1602 16 32.125 16H15.875ZM14 20.375V28.5C14 29.8789 15.1211 31 16.5 31H31.5C32.8789 31 34 29.8789 34 28.5V20.375L25.5 26.75C24.6094 27.418 23.3906 27.418 22.5 26.75L14 20.375Z" fill="white"/>
</svg>
