<svg width="48" height="48" viewBox="0 0 48 48" fill="none" xmlns="http://www.w3.org/2000/svg">
<path d="M36 0C42.6274 0 48 5.37258 48 12V36C48 42.6274 42.6274 48 36 48H12C5.37258 48 0 42.6274 0 36V12C0 5.37258 5.37258 0 12 0H36Z" fill="#6A5CFF"/>
<g clip-path="url(#clip0_132_2668)">
<path d="M29 22.25C31.0703 22.25 32.75 20.5703 32.75 18.5C32.75 16.4297 31.0703 14.75 29 14.75C26.9297 14.75 25.25 16.4297 25.25 18.5C25.25 18.6562 25.2578 18.8125 25.2773 18.9648L21.6016 20.8008C20.9297 20.1484 20.0117 19.75 19 19.75C16.9297 19.75 15.25 21.4297 15.25 23.5C15.25 25.5703 16.9297 27.25 19 27.25C20.0117 27.25 20.9297 26.8516 21.6016 26.1992L25.2773 28.0352C25.2578 28.1875 25.25 28.3398 25.25 28.5C25.25 30.5703 26.9297 32.25 29 32.25C31.0703 32.25 32.75 30.5703 32.75 28.5C32.75 26.4297 31.0703 24.75 29 24.75C27.9883 24.75 27.0703 25.1484 26.3984 25.8008L22.7227 23.9648C22.7422 23.8125 22.75 23.6602 22.75 23.5C22.75 23.3398 22.7422 23.1875 22.7227 23.0352L26.3984 21.1992C27.0703 21.8516 27.9883 22.25 29 22.25Z" fill="white"/>
</g>
<defs>
<clipPath id="clip0_132_2668">
<path d="M15.25 13.5H32.75V33.5H15.25V13.5Z" fill="white"/>
</clipPath>
</defs>
</svg>
