<svg width="13" height="20" viewBox="0 0 13 20" fill="none" xmlns="http://www.w3.org/2000/svg">
<!-- <path d="M12.25 20H0V0H12.25V20Z" stroke="#E5E7EB"/> -->
<g clip-path="url(#clip0_130_2356)">
<path d="M11.993 10.3681C12.3348 10.0263 12.3348 9.47119 11.993 9.1294L7.61797 4.75439C7.27617 4.4126 6.72109 4.4126 6.3793 4.75439C6.0375 5.09619 6.0375 5.65127 6.3793 5.99307L9.26406 8.8751H0.875C0.391016 8.8751 0 9.26611 0 9.7501C0 10.2341 0.391016 10.6251 0.875 10.6251H9.26133L6.38203 13.5071C6.04023 13.8489 6.04023 14.404 6.38203 14.7458C6.72383 15.0876 7.27891 15.0876 7.6207 14.7458L11.9957 10.3708L11.993 10.3681Z" fill="white"/>
</g>
<defs>
<clipPath id="clip0_130_2356">
<path d="M0 2.75H12.25V16.75H0V2.75Z" fill="white"/>
</clipPath>
</defs>
</svg>
