<svg width="63" height="42" viewBox="0 0 63 42" fill="none" xmlns="http://www.w3.org/2000/svg">
<path d="M16.4239 0H10.6886L9.73267 3.12838H17.3798L16.4239 0Z" fill="#30246C"/>
<path d="M9.67494 4.05518L6.60449 18.3646L13.093 19.4074L14.7151 22.8254H20.3925L17.3221 4.05518H9.67494Z" fill="#30246C"/>
<path d="M33.4852 8.80566H23.1731V15.2942H33.4852V8.80566Z" fill="#30246C"/>
<path d="M44.6084 8.80566H34.2964V15.2942H44.6084V8.80566Z" fill="#30246C"/>
<path d="M44.6084 1.27441H34.2964V7.7629H44.6084V1.27441Z" fill="#30246C"/>
<path d="M55.7315 8.80566H45.4194V15.2942H55.7315V8.80566Z" fill="#30246C"/>
<path d="M33.4852 16.3369H23.1731V22.8254H33.4852V16.3369Z" fill="#30246C"/>
<path d="M44.6373 16.3369H34.3252V22.8254H43.1728L44.6373 21.1351V16.3369Z" fill="#30246C"/>
<path d="M55.7315 16.3369H45.4194V21.3191L46.9011 19.971H55.7315V16.3369Z" fill="#30246C"/>
<path d="M43.7973 24.5058H14.0777L11.6445 20.856L0 20.0449L4.11324 37.0193L6.14089 39.4524L8.28441 40.727L54.2831 41.4222L62.5096 21.1456H47.3891L43.7973 24.5058Z" fill="#30246C"/>
<path d="M31.6638 29.7081L30.888 36.9585L29.7197 36.8335L26.8318 31.5294L26.7716 31.5229L26.2432 36.4616L24.9298 36.321L25.7056 29.0706L26.8809 29.1964L29.7649 34.5037L29.8286 34.5105L30.3574 29.5684L31.6638 29.7081Z" fill="#B8AAFF"/>
<path d="M15.8695 9.92477L15.3 15.2477L14.4423 15.1559L12.3222 11.2618L12.278 11.2571L11.89 14.8828L10.9258 14.7796L11.4953 9.45675L12.3582 9.54907L14.4755 13.4454L14.5223 13.4505L14.9105 9.82216L15.8695 9.92477Z" fill="#B8AAFF"/>
</svg>
