<svg width="18" height="28" viewBox="0 0 18 28" fill="none" xmlns="http://www.w3.org/2000/svg">
<!-- <path d="M18 28H0V0H18V28Z" stroke="#E5E7EB"/> -->
<g clip-path="url(#clip0_130_2361)">
<path d="M5.5055 17.7818L4.41917 16.6954C4.12035 16.3966 4.01488 15.9642 4.14847 15.5634C4.25394 15.2505 4.39457 14.8427 4.56332 14.3751H0.843784C0.54144 14.3751 0.26019 14.2134 0.109018 13.9497C-0.0421534 13.6861 -0.0386378 13.3626 0.11605 13.1025L1.96175 9.99113C2.41878 9.22121 3.24496 8.75012 4.13792 8.75012H7.03128C7.11566 8.60949 7.20003 8.47941 7.28441 8.35285C10.1637 4.10598 14.4528 3.96535 17.0121 4.43645C17.42 4.51027 17.7364 4.8302 17.8137 5.23801C18.2848 7.8009 18.1407 12.0864 13.8973 14.9657C13.7743 15.0501 13.6407 15.1345 13.5 15.2189V18.1122C13.5 19.0052 13.0289 19.8349 12.259 20.2884L9.14769 22.1341C8.88754 22.2888 8.5641 22.2923 8.30043 22.1411C8.03675 21.99 7.87503 21.7122 7.87503 21.4064V17.6376C7.37933 17.8099 6.94691 17.9505 6.61996 18.056C6.22621 18.1825 5.7973 18.0736 5.50199 17.7818H5.5055ZM13.5 10.1564C13.873 10.1564 14.2307 10.0082 14.4944 9.74449C14.7581 9.48076 14.9063 9.12308 14.9063 8.75012C14.9063 8.37716 14.7581 8.01947 14.4944 7.75575C14.2307 7.49203 13.873 7.34387 13.5 7.34387C13.1271 7.34387 12.7694 7.49203 12.5057 7.75575C12.2419 8.01947 12.0938 8.37716 12.0938 8.75012C12.0938 9.12308 12.2419 9.48076 12.5057 9.74449C12.7694 10.0082 13.1271 10.1564 13.5 10.1564Z" fill="#6A5CFF"/>
</g>
<defs>
<clipPath id="clip0_130_2361">
<path d="M0 4.25H18V22.25H0V4.25Z" fill="white"/>
</clipPath>
</defs>
</svg>
