<svg width="14" height="14" viewBox="0 0 14 14" fill="none" xmlns="http://www.w3.org/2000/svg">
<path d="M2.5 2.5V4H1.5V2.5H0V1.5H1.5V0H2.5V1.5H4V2.5H2.5ZM10.21 11.505L13.225 8.49C14.255 7.46 14.255 5.795 13.225 4.77C12.195 3.745 10.53 3.74 9.505 4.77L10.21 5.475C10.517 5.16991 10.9322 4.99868 11.365 4.99868C11.7978 4.99868 12.213 5.16991 12.52 5.475C12.8251 5.78198 12.9963 6.1972 12.9963 6.63C12.9963 7.0628 12.8251 7.47802 12.52 7.785L9.505 10.8C9.19802 11.1051 8.7828 11.2763 8.35 11.2763C7.9172 11.2763 7.50198 11.1051 7.195 10.8C6.88991 10.493 6.71868 10.0778 6.71868 9.645C6.71868 9.2122 6.88991 8.79698 7.195 8.49L6.49 7.785C5.995 8.28 5.72 8.95 5.72 9.65C5.72 11.105 6.9 12.28 8.355 12.28C9.055 12.28 9.725 12.005 10.215 11.51L10.21 11.505ZM5.995 12.73L5.29 12.025C4.98389 12.3279 4.57064 12.4978 4.14 12.4978C3.70936 12.4978 3.29611 12.3279 2.99 12.025C2.68273 11.7198 2.50911 11.3052 2.50723 10.8721C2.50536 10.439 2.67539 10.0229 2.98 9.715L5.995 6.7L6.005 6.69C6.645 6.055 7.68 6.06 8.315 6.7C8.95 7.34 8.945 8.375 8.305 9.01L9.01 9.715L9.025 9.7C9.26833 9.45479 9.46096 9.16404 9.5919 8.84436C9.72284 8.52468 9.78952 8.18234 9.78813 7.83689C9.78673 7.49144 9.7173 7.14965 9.58379 6.83104C9.45027 6.51243 9.2553 6.22324 9.01 5.98C8.76479 5.73667 8.47404 5.54404 8.15436 5.4131C7.83468 5.28216 7.49234 5.21548 7.14689 5.21687C6.80144 5.21827 6.45965 5.2877 6.14104 5.42122C5.82243 5.55473 5.53324 5.7497 5.29 5.995L2.275 9.01C1.78045 9.50284 1.50171 10.1718 1.5 10.87C1.5 12.325 2.685 13.5 4.135 13.5C4.835 13.5 5.505 13.225 5.995 12.73Z" fill="#6A5CFF"/>
</svg>
