<svg width="21" height="28" viewBox="0 0 21 28" fill="none" xmlns="http://www.w3.org/2000/svg">
<!-- <path d="M20.25 28H0V0H20.25V28Z" stroke="#E5E7EB"/> -->
<g clip-path="url(#clip0_130_2351)">
<path d="M19.2516 7.89922L17.2372 4.71055C17.0579 4.42578 16.7379 4.25 16.3969 4.25H3.85317C3.51215 4.25 3.19223 4.42578 3.01293 4.71055L0.994966 7.89922C-0.0456588 9.54453 0.875435 11.8332 2.81958 12.0969C2.9602 12.1145 3.10434 12.125 3.24497 12.125C4.16254 12.125 4.97817 11.7242 5.53715 11.1055C6.09614 11.7242 6.91176 12.125 7.82934 12.125C8.74692 12.125 9.56254 11.7242 10.1215 11.1055C10.6805 11.7242 11.4961 12.125 12.4137 12.125C13.3348 12.125 14.1469 11.7242 14.7059 11.1055C15.2684 11.7242 16.0805 12.125 16.9981 12.125C17.1422 12.125 17.2829 12.1145 17.4235 12.0969C19.3747 11.8367 20.2993 9.54805 19.2551 7.89922H19.2516ZM17.5676 13.2113H17.5641C17.3778 13.2359 17.1879 13.25 16.9946 13.25C16.5586 13.25 16.1403 13.1832 15.75 13.0637V17.75H4.50004V13.0602C4.10629 13.1832 3.68442 13.25 3.24848 13.25C3.05512 13.25 2.86176 13.2359 2.67544 13.2113H2.67192C2.52778 13.1902 2.38715 13.1656 2.25004 13.1305V17.75V20C2.25004 21.241 3.25903 22.25 4.50004 22.25H15.75C16.9911 22.25 18 21.241 18 20V17.75V13.1305C17.8594 13.1656 17.7188 13.1937 17.5676 13.2113Z" fill="white"/>
</g>
<defs>
<clipPath id="clip0_130_2351">
<path d="M0 4.25H20.25V22.25H0V4.25Z" fill="white"/>
</clipPath>
</defs>
</svg>
