<svg width="16" height="16" viewBox="0 0 16 16" fill="none" xmlns="http://www.w3.org/2000/svg">
<path d="M14.2666 9.50016L9.49992 14.2668C9.36659 14.4002 9.21659 14.5002 9.04992 14.5668C8.88325 14.6335 8.71659 14.6668 8.54992 14.6668C8.38325 14.6668 8.21659 14.6335 8.04992 14.5668C7.88325 14.5002 7.73325 14.4002 7.59992 14.2668L1.71659 8.3835C1.59436 8.26127 1.49992 8.11972 1.43325 7.95883C1.36659 7.79794 1.33325 7.62838 1.33325 7.45016V2.66683C1.33325 2.30016 1.46392 1.98638 1.72525 1.7255C1.98659 1.46461 2.30036 1.33394 2.66659 1.3335H7.44992C7.6277 1.3335 7.79992 1.36972 7.96659 1.44216C8.13325 1.51461 8.2777 1.61172 8.39992 1.7335L14.2666 7.61683C14.3999 7.75016 14.4973 7.90016 14.5586 8.06683C14.6199 8.2335 14.6504 8.40016 14.6499 8.56683C14.6495 8.7335 14.619 8.8975 14.5586 9.05883C14.4981 9.22016 14.4008 9.36727 14.2666 9.50016ZM4.33325 5.3335C4.61103 5.3335 4.84725 5.23638 5.04192 5.04216C5.23659 4.84794 5.3337 4.61172 5.33325 4.3335C5.33281 4.05527 5.2357 3.81927 5.04192 3.6255C4.84814 3.43172 4.61192 3.33438 4.33325 3.3335C4.05459 3.33261 3.81859 3.42994 3.62525 3.6255C3.43192 3.82105 3.33459 4.05705 3.33325 4.3335C3.33192 4.60994 3.42925 4.84616 3.62525 5.04216C3.82125 5.23816 4.05725 5.33527 4.33325 5.3335Z" fill="white"/>
</svg>
