<svg width="27" height="23" viewBox="0 0 27 23" fill="none" xmlns="http://www.w3.org/2000/svg">
<rect width="27" height="23" rx="5" fill="#F3EEFE"/>
<path d="M14 6.40002C14.7721 6.40002 15.4 7.02784 15.4 7.80002C15.4 8.57221 14.7721 9.20002 14 9.20002C13.2278 9.20002 12.6 8.57221 12.6 7.80002C12.6 7.02784 13.2278 6.40002 14 6.40002ZM16.1 13.225C16.1 13.7719 15.8221 14.2531 15.4 14.5353V15.5H12.6V14.5353C12.1778 14.2531 11.9 13.7719 11.9 13.225V12.35C11.9 11.1906 12.8406 10.25 14 10.25C15.1593 10.25 16.1 11.1906 16.1 12.35V13.225ZM16.45 15.5V14.9028C16.8853 14.4106 17.15 13.761 17.15 13.05V12.35C17.15 11.766 16.9903 11.2213 16.7146 10.751C16.9575 10.6525 17.2221 10.6 17.5 10.6C18.6593 10.6 19.6 11.5406 19.6 12.7V13.4C19.6 13.9185 19.3178 14.3713 18.9 14.6119V15.5H16.45ZM9.09995 14.6119C8.68214 14.3713 8.39995 13.9185 8.39995 13.4V12.7C8.39995 11.5406 9.34058 10.6 10.5 10.6C10.7778 10.6 11.0425 10.6547 11.2853 10.751C11.0096 11.2191 10.85 11.766 10.85 12.35V13.05C10.85 13.761 11.1146 14.4085 11.55 14.9028V15.5H9.09995V14.6119ZM10.5 7.10002C11.1759 7.10002 11.725 7.64909 11.725 8.32502C11.725 9.00096 11.1759 9.55002 10.5 9.55002C9.82401 9.55002 9.27495 9.00096 9.27495 8.32502C9.27495 7.64909 9.82401 7.10002 10.5 7.10002ZM17.5 7.10002C18.1759 7.10002 18.725 7.64909 18.725 8.32502C18.725 9.00096 18.1759 9.55002 17.5 9.55002C16.824 9.55002 16.275 9.00096 16.275 8.32502C16.275 7.64909 16.824 7.10002 17.5 7.10002ZM8.22495 16.55H19.775C20.0659 16.55 20.3 16.7841 20.3 17.075C20.3 17.366 20.0659 17.6 19.775 17.6H8.22495C7.93401 17.6 7.69995 17.366 7.69995 17.075C7.69995 16.7841 7.93401 16.55 8.22495 16.55Z" fill="#6A5CFF"/>
</svg>
