<svg width="27" height="23" viewBox="0 0 27 23" fill="none" xmlns="http://www.w3.org/2000/svg">
<rect width="27" height="23" rx="5" fill="#F3EEFE"/>
<path d="M16.9167 11.125V9.08333C16.9167 8.92862 16.8552 8.78025 16.7458 8.67085C16.6364 8.56146 16.488 8.5 16.3333 8.5H9.33333C9.17862 8.5 9.03025 8.56146 8.92085 8.67085C8.81146 8.78025 8.75 8.92862 8.75 9.08333V14.9167C8.75 15.0714 8.81146 15.2197 8.92085 15.3291C9.03025 15.4385 9.17862 15.5 9.33333 15.5H16.3333C16.488 15.5 16.6364 15.4385 16.7458 15.3291C16.8552 15.2197 16.9167 15.0714 16.9167 14.9167V12.875L19.25 15.2083V8.79167L16.9167 11.125Z" fill="#6A5CFF"/>
</svg>
