<svg width="27" height="23" viewBox="0 0 27 23" fill="none" xmlns="http://www.w3.org/2000/svg">
<rect width="27" height="23" rx="5" fill="#F3EEFE"/>
<path d="M18.0833 9.08325H9.91659C9.76188 9.08325 9.6135 9.14471 9.50411 9.25411C9.39471 9.3635 9.33325 9.51188 9.33325 9.66659V17.2499C9.33325 17.4046 9.39471 17.553 9.50411 17.6624C9.6135 17.7718 9.76188 17.8333 9.91659 17.8333H18.0833C18.238 17.8333 18.3863 17.7718 18.4957 17.6624C18.6051 17.553 18.6666 17.4046 18.6666 17.2499V9.66659C18.6666 9.51188 18.6051 9.3635 18.4957 9.25411C18.3863 9.14471 18.238 9.08325 18.0833 9.08325Z" fill="#6A5CFF" stroke="#6A5CFF" stroke-width="2" stroke-linecap="round" stroke-linejoin="round"/>
<path d="M11.9583 10.25V8.20829C11.9583 7.94018 12.0111 7.67469 12.1137 7.42698C12.2163 7.17927 12.3667 6.9542 12.5562 6.76462C12.7458 6.57503 12.9709 6.42464 13.2186 6.32204C13.4663 6.21944 13.7318 6.16663 13.9999 6.16663C14.268 6.16663 14.5335 6.21944 14.7812 6.32204C15.0289 6.42464 15.254 6.57503 15.4436 6.76462C15.6332 6.9542 15.7836 7.17927 15.8862 7.42698C15.9888 7.67469 16.0416 7.94018 16.0416 8.20829V10.25" stroke="#6A5CFF" stroke-width="2" stroke-linecap="round" stroke-linejoin="round"/>
</svg>
