<svg width="32" height="32" viewBox="0 0 32 32" fill="none" xmlns="http://www.w3.org/2000/svg">
<path d="M24 0C28.4183 0 32 3.58172 32 8V24C32 28.4183 28.4183 32 24 32H8C3.58172 32 0 28.4183 0 24V8C0 3.58172 3.58172 0 8 0H24Z" fill="#6A5CFF"/>

<g clip-path="url(#clip0_132_2685)">
<path d="M16.0028 12.6054C14.2638 12.6054 12.861 14.0081 12.861 15.7472C12.861 17.4862 14.2638 18.889 16.0028 18.889C17.7419 18.889 19.1446 17.4862 19.1446 15.7472C19.1446 14.0081 17.7419 12.6054 16.0028 12.6054ZM16.0028 17.7897C14.879 17.7897 13.9603 16.8737 13.9603 15.7472C13.9603 14.6206 14.8763 13.7046 16.0028 13.7046C17.1294 13.7046 18.0454 14.6206 18.0454 15.7472C18.0454 16.8737 17.1267 17.7897 16.0028 17.7897ZM20.006 12.4769C20.006 12.8843 19.6778 13.2097 19.2731 13.2097C18.8657 13.2097 18.5403 12.8815 18.5403 12.4769C18.5403 12.0722 18.8685 11.744 19.2731 11.744C19.6778 11.744 20.006 12.0722 20.006 12.4769ZM22.0868 13.2206C22.0403 12.239 21.8161 11.3694 21.097 10.653C20.3806 9.93662 19.511 9.7124 18.5294 9.66318C17.5177 9.60576 14.4853 9.60576 13.4735 9.66318C12.4946 9.70967 11.6251 9.93389 10.906 10.6503C10.1868 11.3667 9.96533 12.2362 9.91611 13.2179C9.85869 14.2296 9.85869 17.262 9.91611 18.2737C9.9626 19.2554 10.1868 20.1249 10.906 20.8413C11.6251 21.5577 12.4919 21.7819 13.4735 21.8312C14.4853 21.8886 17.5177 21.8886 18.5294 21.8312C19.511 21.7847 20.3806 21.5604 21.097 20.8413C21.8134 20.1249 22.0376 19.2554 22.0868 18.2737C22.1442 17.262 22.1442 14.2323 22.0868 13.2206ZM20.7798 19.3593C20.5665 19.8952 20.1536 20.3081 19.6149 20.5241C18.8083 20.844 16.8942 20.7702 16.0028 20.7702C15.1114 20.7702 13.1946 20.8413 12.3907 20.5241C11.8548 20.3108 11.4419 19.8979 11.2259 19.3593C10.906 18.5526 10.9798 16.6386 10.9798 15.7472C10.9798 14.8558 10.9087 12.939 11.2259 12.1351C11.4392 11.5991 11.8521 11.1862 12.3907 10.9702C13.1974 10.6503 15.1114 10.7241 16.0028 10.7241C16.8942 10.7241 18.811 10.653 19.6149 10.9702C20.1509 11.1835 20.5638 11.5964 20.7798 12.1351C21.0997 12.9417 21.0259 14.8558 21.0259 15.7472C21.0259 16.6386 21.0997 18.5554 20.7798 19.3593Z" fill="white"/>
</g>
<defs>
<clipPath id="clip0_132_2685">
<path d="M9.875 8.75H22.125V22.75H9.875V8.75Z" fill="white"/>
</clipPath>
</defs>
</svg>
