<svg width="32" height="32" viewBox="0 0 32 32" fill="none" xmlns="http://www.w3.org/2000/svg">
<path d="M24 0C28.4183 0 32 3.58172 32 8V24C32 28.4183 28.4183 32 24 32H8C3.58172 32 0 28.4183 0 24V8C0 3.58172 3.58172 0 8 0H24Z" fill="#6A5CFF"/>
<g clip-path="url(#clip0_132_2690)">
<path d="M21.25 9.625H10.7473C10.266 9.625 9.875 10.0215 9.875 10.5082V20.9918C9.875 21.4785 10.266 21.875 10.7473 21.875H21.25C21.7312 21.875 22.125 21.4785 22.125 20.9918V10.5082C22.125 10.0215 21.7312 9.625 21.25 9.625ZM13.5773 20.125H11.7617V14.2789H13.5801V20.125H13.5773ZM12.6695 13.4805C12.0871 13.4805 11.6168 13.0074 11.6168 12.4277C11.6168 11.848 12.0871 11.375 12.6695 11.375C13.2492 11.375 13.7223 11.848 13.7223 12.4277C13.7223 13.0102 13.252 13.4805 12.6695 13.4805ZM20.3832 20.125H18.5676V17.2812C18.5676 16.6031 18.5539 15.7309 17.6242 15.7309C16.6781 15.7309 16.5332 16.4691 16.5332 17.232V20.125H14.7176V14.2789H16.4594V15.0773H16.484C16.7273 14.618 17.3207 14.134 18.2039 14.134C20.0414 14.134 20.3832 15.3453 20.3832 16.9203V20.125Z" fill="white"/>
</g>
<defs>
<clipPath id="clip0_132_2690">
<path d="M9.875 8.75H22.125V22.75H9.875V8.75Z" fill="white"/>
</clipPath>
</defs>
</svg>
