<svg width="32" height="32" viewBox="0 0 32 32" fill="none" xmlns="http://www.w3.org/2000/svg">
<path d="M24 0C28.4183 0 32 3.58172 32 8V24C32 28.4183 28.4183 32 24 32H8C3.58172 32 0 28.4183 0 24V8C0 3.58172 3.58172 0 8 0H24Z" fill="#6A5CFF"/>
<path d="M21.5609 12.8984C21.5698 13.0228 21.5698 13.1472 21.5698 13.2715C21.5698 17.0647 18.6827 21.4352 13.4061 21.4352C11.7804 21.4352 10.2703 20.9644 9 20.1472C9.23097 20.1738 9.45303 20.1827 9.69289 20.1827C11.0342 20.1827 12.269 19.7297 13.2551 18.9568C11.9936 18.9302 10.9365 18.104 10.5723 16.967C10.75 16.9936 10.9277 17.0114 11.1142 17.0114C11.3718 17.0114 11.6295 16.9758 11.8693 16.9137C10.5546 16.6472 9.5685 15.4923 9.5685 14.0977V14.0622C9.95047 14.2754 10.3947 14.4086 10.8654 14.4264C10.0926 13.9111 9.58628 13.0317 9.58628 12.0368C9.58628 11.5038 9.72838 11.0152 9.97713 10.5888C11.3896 12.3299 13.5127 13.4669 15.8934 13.5913C15.849 13.3781 15.8223 13.1561 15.8223 12.934C15.8223 11.3528 17.1015 10.0647 18.6916 10.0647C19.5177 10.0647 20.2639 10.4111 20.788 10.9708C21.4365 10.8464 22.0583 10.6066 22.6091 10.2779C22.3959 10.9442 21.9428 11.5038 21.3477 11.8591C21.9251 11.797 22.4847 11.637 22.9999 11.415C22.6091 11.9835 22.1205 12.4898 21.5609 12.8984Z" fill="white"/>
</svg>
